<?xml version="1.0" standalone="no"?>
<!DOCTYPE svg PUBLIC "-//W3C//DTD SVG 20010904//EN"
 "http://www.w3.org/TR/2001/REC-SVG-20010904/DTD/svg10.dtd">
<svg version="1.0" xmlns="http://www.w3.org/2000/svg"
 width="577.000000pt" height="577.000000pt" viewBox="0 0 577.000000 577.000000"
 preserveAspectRatio="xMidYMid meet">
<metadata>
Created by potrace 1.14, written by Peter Selinger 2001-2017
</metadata>
<g transform="translate(0.000000,577.000000) scale(0.100000,-0.100000)"
fill="#000000" stroke="none">
<path d="M2378 4997 c-37 -7 -70 -15 -74 -19 -4 -5 -14 -8 -22 -8 -28 0 -116
-64 -179 -130 -35 -36 -63 -68 -63 -72 0 -4 -6 -13 -13 -20 -13 -13 -137 -215
-137 -223 0 -5 -53 -122 -90 -200 -36 -75 -79 -178 -115 -275 -16 -41 -32 -79
-37 -85 -4 -5 -8 -19 -8 -31 0 -13 -4 -25 -9 -28 -5 -3 -12 -22 -16 -42 -3
-20 -10 -44 -15 -53 -5 -9 -20 -54 -34 -101 -14 -47 -30 -98 -35 -115 -5 -16
-12 -48 -16 -70 -3 -22 -16 -73 -28 -114 -18 -63 -26 -76 -56 -95 -42 -27 -59
-32 -166 -51 -115 -21 -291 -61 -305 -70 -7 -4 -67 -8 -134 -9 -107 -1 -127
-4 -171 -26 -60 -29 -136 -104 -167 -163 -31 -61 -30 -146 5 -213 28 -55 101
-134 124 -134 7 0 13 -4 13 -9 0 -5 15 -12 32 -16 23 -5 57 -31 113 -88 44
-45 91 -91 105 -102 37 -30 238 -155 249 -155 5 0 11 -3 13 -7 8 -18 239 -118
318 -138 14 -3 41 -10 60 -15 19 -5 47 -12 63 -15 15 -3 27 -12 27 -20 0 -8
11 -47 24 -87 13 -40 36 -113 51 -163 28 -94 66 -198 90 -250 79 -169 155
-308 196 -359 78 -98 177 -214 190 -224 10 -7 25 -20 34 -28 43 -43 160 -136
188 -148 80 -37 113 -46 161 -46 55 1 145 26 173 50 10 8 31 24 48 34 42 28
153 141 210 216 28 35 60 76 73 90 12 14 22 28 22 32 0 13 132 73 225 102 50
16 99 32 110 36 11 4 63 22 115 38 52 17 140 47 195 67 154 55 154 55 167 41
21 -19 126 -66 186 -81 31 -8 91 -15 133 -15 69 0 80 3 120 32 24 17 46 36 48
42 2 5 14 20 26 32 31 31 97 140 124 204 26 62 58 135 71 165 5 11 17 45 26
75 9 30 23 73 31 95 15 39 33 119 54 240 34 193 30 485 -11 655 -16 70 -74
275 -81 290 -3 8 -11 26 -17 40 -34 80 -57 132 -84 188 -25 53 -29 72 -24 110
14 112 18 287 8 336 -6 28 -14 69 -17 91 -6 42 -24 103 -36 120 -4 6 -10 26
-14 45 -4 19 -17 54 -28 76 l-20 42 22 35 c31 50 40 161 18 219 -37 97 -125
148 -254 148 -71 0 -110 -12 -189 -58 -44 -26 -58 -41 -76 -88 -16 -39 -39
-68 -149 -187 l-46 -50 -134 65 c-176 86 -256 120 -454 192 -76 27 -288 89
-345 101 -19 3 -51 14 -70 22 -34 16 -34 16 -13 30 40 27 59 48 72 80 12 29
11 37 -8 76 -57 118 -203 174 -373 144z"/>
</g>
</svg>
